<svg width="24" height="24" viewBox="0 0 24 24" fill="none" xmlns="http://www.w3.org/2000/svg">
<circle cx="12" cy="12" r="12" fill="#2ECC71"/>
<path d="M15.5042 5C15.5042 5 14.3523 6.11753 13.1066 6.56808C3.88141 9.90485 7.77205 16.4073 7.89898 16.4287C7.89898 16.4287 8.41628 15.5279 9.11508 15.014C13.5494 11.7542 14.4506 8.00198 14.4506 8.00198C14.4506 8.00198 13.4556 12.5171 9.51061 15.3266C8.63931 15.9467 8.04934 17.4738 7.7996 19C7.7996 19 8.41722 18.7505 8.68281 18.6829C8.78637 18.007 9.0029 17.3599 9.36898 16.7818C14.8825 17.4382 16.6883 12.9955 16.9242 11.4464C17.481 7.7876 15.5042 5 15.5042 5Z" fill="white"/>
</svg>
