<svg width="24" height="24" viewBox="0 0 24 24" fill="none" xmlns="http://www.w3.org/2000/svg">
<circle cx="12" cy="12" r="12" fill="#FFC22B"/>
<g clip-path="url(#clip0_2_599)">
<path d="M15.8575 8.14285C15.9363 8.13901 16.0153 8.13708 16.0946 8.13708C16.6152 8.13708 17.123 8.22018 17.6029 8.37997C18.1054 7.70503 18.3772 6.89006 18.3772 6.03333C18.3772 5.80688 18.1935 5.62317 17.967 5.62317C17.0888 5.62317 16.2769 5.91209 15.6211 6.3998C15.7803 6.87906 15.8632 7.38609 15.8632 7.90584C15.8632 7.98499 15.8613 8.06403 15.8575 8.14285Z" fill="white"/>
<path d="M8.99828 14.9965C8.9015 14.8995 8.81018 14.7993 8.72356 14.6964L5.12016 18.2999C4.95995 18.46 4.95995 18.7197 5.12016 18.8798C5.20027 18.9599 5.30516 19 5.41016 19C5.51515 19 5.62004 18.9599 5.70015 18.8798L9.30344 15.2766C9.1993 15.1888 9.09825 15.0965 9.00095 14.9991C9.00009 14.9982 8.99913 14.9973 8.99828 14.9965Z" fill="white"/>
<path d="M13.8801 8.71928C13.9333 8.95587 13.9676 9.19513 13.9843 9.43503L15.0104 8.40921C15.0314 8.24344 15.0422 8.07542 15.0422 7.9057C15.0422 6.8535 14.6325 5.86421 13.8884 5.12016C13.8114 5.04315 13.7072 5 13.5983 5C13.4896 5 13.3852 5.04315 13.3083 5.12016C12.9608 5.46773 12.6863 5.8688 12.4922 6.30481C12.5313 6.33546 12.569 6.36826 12.6046 6.40393C13.2418 7.04117 13.6828 7.84183 13.8801 8.71928Z" fill="white"/>
<path d="M18.88 10.1112C18.136 9.36713 17.1467 8.9574 16.0945 8.9574C15.9247 8.9574 15.7566 8.96819 15.591 8.98933L14.5674 10.0128C15.7119 10.0923 16.7771 10.5759 17.5962 11.3951C17.6319 11.4307 17.6647 11.4683 17.6954 11.5073C18.129 11.3144 18.5282 11.0417 18.8745 10.6967C18.9144 10.6583 18.9469 10.6115 18.969 10.5582C19.0324 10.4049 18.9973 10.2286 18.88 10.1112Z" fill="white"/>
<path d="M12.1237 11.2965L13.1441 10.2761C13.2946 9.10597 12.9222 7.88084 12.0254 6.98405C11.9484 6.90715 11.844 6.86389 11.7353 6.86389C11.6266 6.86389 11.5221 6.90715 11.4452 6.98416C11.0928 7.33653 10.8215 7.73964 10.6309 8.1702C10.6693 8.20042 10.7064 8.23279 10.7414 8.26793C11.5605 9.08696 12.0442 10.152 12.1237 11.2965Z" fill="white"/>
<path d="M14.2305 10.8212C14.0607 10.8212 13.8926 10.832 13.7268 10.8532L12.7031 11.8766C13.8477 11.9561 14.9128 12.4397 15.732 13.2588C15.7677 13.2944 15.8007 13.3322 15.8313 13.3712C16.2672 13.1773 16.6683 12.9027 17.016 12.5551C17.0929 12.4782 17.1361 12.3738 17.1361 12.2651C17.1361 12.1563 17.0929 12.052 17.016 11.9751C16.2719 11.231 15.2827 10.8212 14.2305 10.8212Z" fill="white"/>
<path d="M11.3145 11.6335C11.3145 10.5812 10.9047 9.59195 10.1606 8.84801C10.0805 8.7679 9.97554 8.72784 9.87065 8.72784C9.76565 8.72784 9.66066 8.7679 9.58065 8.84801C8.14266 10.2859 8.05101 12.5681 9.30551 14.1138L11.2826 12.1367C11.3036 11.9711 11.3145 11.8032 11.3145 11.6335Z" fill="white"/>
<path d="M12.3665 12.6851C12.1967 12.6851 12.0285 12.696 11.8627 12.717L9.88574 14.694C10.5853 15.2632 11.4519 15.5727 12.3664 15.5728H12.3668C13.4187 15.5728 14.4079 15.1631 15.152 14.419C15.229 14.3421 15.2721 14.2377 15.2721 14.1289C15.2721 14.0202 15.229 13.9158 15.152 13.8389C14.4079 13.0948 13.4187 12.6851 12.3665 12.6851Z" fill="white"/>
</g>
<defs>
<clipPath id="clip0_2_599">
<rect width="14" height="14" fill="white" transform="translate(5 5)"/>
</clipPath>
</defs>
</svg>
